<svg width="28" height="29" xmlns="http://www.w3.org/2000/svg" xmlns:xlink="http://www.w3.org/1999/xlink"><defs><filter x="-55.4%" y="-55.4%" width="230.9%" height="230.9%" filterUnits="objectBoundingBox" id="a"><feOffset dx="1" dy="1" in="SourceAlpha" result="shadowOffsetOuter1"/><feGaussianBlur stdDeviation="2" in="shadowOffsetOuter1" result="shadowBlurOuter1"/><feColorMatrix values="0 0 0 0 0.890196078 0 0 0 0 0.890196078 0 0 0 0 0.921568627 0 0 0 1 0" in="shadowBlurOuter1"/></filter><circle id="b" cx="5.172" cy="4.966" r="4.966"/></defs><g fill="none"><path fill="#FFF" d="M18.828 5.793L13.034 0H.207v24h18.62z"/><path d="M4.345 9.517H14.69a.414.414 0 100-.827H4.345a.414.414 0 100 .827zm0-3.31h4.138a.414.414 0 100-.828H4.345a.414.414 0 100 .828zM14.69 12H4.345a.414.414 0 100 .828H14.69a.414.414 0 100-.828zm0 3.31H4.345a.414.414 0 100 .828H14.69a.414.414 0 100-.828zm0 3.31H4.345a.414.414 0 100 .828H14.69a.414.414 0 100-.827zM13.034 0v5.793h5.794z" fill="#E3E3EB"/><g transform="translate(12.828 14.069)"><use fill="#000" filter="url(#a)" xlink:href="#b"/><use fill="#FFF" xlink:href="#b"/></g><path d="M20.483 18.62h-2.07v-2.068a.414.414 0 00-.827 0v2.069h-2.069a.414.414 0 000 .827h2.07v2.07a.414.414 0 00.827 0v-2.07h2.069a.414.414 0 000-.827z" fill="#3380C4"/></g></svg>