<svg width="40" height="40" xmlns="http://www.w3.org/2000/svg"><defs><linearGradient x1="33.202%" y1="14.06%" x2="58.495%" y2="68.175%" id="a"><stop stop-color="#3457A0" offset="0%"/><stop stop-color="#3B5998" offset="100%"/></linearGradient><linearGradient x1="71.377%" y1="64.688%" x2="-27.135%" y2="-2.999%" id="b"><stop stop-color="#3457A0" stop-opacity="0" offset="0%"/><stop stop-color="#1F3F77" offset="100%"/></linearGradient><linearGradient x1="50%" y1="17.68%" x2="50%" y2="85.475%" id="c"><stop stop-color="#3457A0" stop-opacity="0" offset="0%"/><stop stop-color="#1F3F77" offset="100%"/></linearGradient><linearGradient x1="86.627%" y1="79.108%" x2="27.94%" y2="37.114%" id="d"><stop stop-color="#3457A0" stop-opacity="0" offset="0%"/><stop stop-color="#2A4C8D" stop-opacity=".325" offset="32.51%"/><stop stop-color="#22427D" stop-opacity=".706" offset="70.45%"/><stop stop-color="#1F3F77" offset="100%"/></linearGradient></defs><g fill="none"><path d="M32.845 39.315a120.82 120.82 0 01-25.69 0 7.283 7.283 0 01-6.47-6.47 120.814 120.814 0 010-25.69 7.283 7.283 0 016.47-6.47 120.814 120.814 0 0125.69 0 7.283 7.283 0 016.47 6.47 120.82 120.82 0 010 25.69 7.283 7.283 0 01-6.47 6.47z" fill="url(#a)"/><path d="M36.604 8.183a6.436 6.436 0 00-5.717-5.718 106.809 106.809 0 00-22.704 0 6.437 6.437 0 00-5.718 5.718 106.806 106.806 0 000 22.703 6.437 6.437 0 005.718 5.718c7.56.807 15.143.807 22.703 0a6.436 6.436 0 005.718-5.718c.807-7.56.807-15.143 0-22.703z" fill="url(#b)"/><path d="M.93 31.628c.028.29.056.58.086.87.367 3.577 3.08 6.402 6.515 6.784a116.84 116.84 0 0025.868 0c3.435-.382 6.148-3.207 6.515-6.784.03-.29.058-.58.086-.87H.93z" fill="url(#c)"/><path d="M26.638 6.512c-3.552 0-6.432 2.838-6.432 6.339v4.735h-3.462v5.862l3.462 3.056V40c4.17-.02 8.338-.248 12.501-.686 3.478-.366 6.224-3.073 6.595-6.5.693-6.394.87-12.802.532-19.204L32.63 6.512h-5.993z" fill="url(#d)"/><path d="M20.19 40c2.365-.011 4.73-.09 7.093-.238V23.448h4.707l.568-5.862h-5.275v-3.723c0-.822.674-1.489 1.504-1.489h3.771V6.512h-5.965c-3.536 0-6.403 2.838-6.403 6.339v4.735h-3.446v5.862h3.446V40z" fill="#FFF"/></g></svg>