<svg width="24" height="24" xmlns="http://www.w3.org/2000/svg"><g fill="none"><circle fill="#FFF" cx="12" cy="12" r="12"/><path d="M23.267 7.68H15.36c.343 2.475.345 5.202.007 7.68h7.917a10.552 10.552 0 00-.017-7.68z" fill="#EFECEC"/><path d="M15.413 7.68h7.627a.076.076 0 00-.004-.01C21.452 3.486 17.376.409 12.48 0c1.895.973 2.449 4.054 2.933 7.68z" fill="#429945"/><path d="M12.48 24c4.898-.407 8.972-3.477 10.548-7.647l.012-.033h-7.625c-.48 3.624-1.035 6.709-2.935 7.68z" fill="#0B0B0B"/><path d="M0 11.543c0 1.338.245 2.622.69 3.817h16.347a30.051 30.051 0 00-.006-7.68H.706A10.915 10.915 0 000 11.543z" fill="#EFEFEF"/><path d="M.964 7.67a.162.162 0 01-.004.01h15.36c-.455-3.603-1.574-6.666-3.353-7.633A12.05 12.05 0 0011.922 0C6.864 0 2.563 3.201.964 7.67z" fill="#49A948"/><path d="M16.32 16.32H.96l.011.033C2.562 20.807 6.864 24 11.923 24c.351 0 .699-.017 1.043-.047 1.784-.965 2.903-4.032 3.354-7.633z" fill="#151515"/><path d="M0 12c0 4.976 3.171 9.24 7.68 11.04V.96C3.171 2.759 0 7.024 0 12z" fill="#E73B36"/></g></svg>