<svg width="18" height="18" xmlns="http://www.w3.org/2000/svg"><g fill="#3380C4"><path d="M14.657 3.343A7.948 7.948 0 009 1a7.948 7.948 0 00-5.657 2.343A7.948 7.948 0 001 9c0 2.137.832 4.146 2.343 5.657A7.948 7.948 0 009 17a7.948 7.948 0 005.657-2.343A7.948 7.948 0 0017 9a7.948 7.948 0 00-2.343-5.657zm-10.65.663A7.016 7.016 0 019 1.937c1.886 0 3.66.735 4.994 2.07A7.016 7.016 0 0116.063 9c0 .608-.077 1.205-.225 1.78h-4.282a.517.517 0 00-.384.17A2.924 2.924 0 019 11.92a2.924 2.924 0 01-2.172-.97.518.518 0 00-.385-.171h-4.28A7.103 7.103 0 011.937 9c0-1.886.734-3.66 2.068-4.994zm9.987 9.988A7.016 7.016 0 019 16.063a7.016 7.016 0 01-4.994-2.07 7.052 7.052 0 01-1.53-2.276h3.786A3.864 3.864 0 009 12.857a3.864 3.864 0 002.738-1.14h3.785a7.053 7.053 0 01-1.53 2.277z" stroke="#3380C4" stroke-width=".3"/><path d="M9 10.721a1.722 1.722 0 00.469-3.377V5.507a.469.469 0 10-.938 0v1.837A1.724 1.724 0 007.28 9c0 .95.772 1.721 1.721 1.721zm0-2.505a.785.785 0 11-.002 1.57A.785.785 0 019 8.216zm0-3.795c.259 0 .469-.21.469-.468v-.915a.469.469 0 00-.938 0v.915c0 .258.21.468.469.468zM3.027 9.469h.915a.469.469 0 000-.938h-.915a.469.469 0 100 .938zM13.575 9c0 .259.21.469.469.469h.915a.469.469 0 100-.938h-.915a.469.469 0 00-.469.469zM4.95 5.613a.468.468 0 10.663-.663l-.599-.598a.469.469 0 10-.662.662l.598.599zm7.794.112c.12 0 .24-.046.331-.138l.573-.572a.469.469 0 10-.662-.663l-.573.573a.469.469 0 00.331.8z"/><path d="M9 14.024a5.01 5.01 0 01-3.401-1.326.469.469 0 10-.635.69A5.944 5.944 0 009 14.961c1.5 0 2.933-.56 4.036-1.575a.469.469 0 00-.635-.69A5.01 5.01 0 019 14.025z" stroke="#3380C4" stroke-width=".3"/></g></svg>