<svg width="16" height="18" xmlns="http://www.w3.org/2000/svg"><g fill="#3380C4"><path d="M13.632 1H6.448c-.74 0-1.34.602-1.34 1.34v1.266H5.05L3.91 2.303 1 4.849l1.204 1.377-.01.01v8.493c0 1.252.982 2.271 2.188 2.271h9.25c1.207 0 2.189-1.019 2.189-2.271V3.27C15.82 2.02 14.839 1 13.63 1zM6.045 2.34c0-.221.18-.402.403-.402h5.631l-1.467 1.668H6.045V2.341zM3.822 3.626l.53.607c-.401.38-.968.913-1.454 1.362l-.575-.657 1.499-1.312zM14.883 14.73c0 .735-.561 1.334-1.251 1.334h-9.25c-.69 0-1.25-.599-1.25-1.334V6.653a178 178 0 002.255-2.11h5.65l2.29-2.606h.305c.69 0 1.251.599 1.251 1.334V14.73z" stroke="#3380C4" stroke-width=".3" stroke-linejoin="round"/><path d="M13.523 6.588l-.663-.663-1.438 1.437H6.717L5.279 5.925l-.663.663 1.438 1.437v4.706l-1.438 1.437.663.663 1.438-1.437h4.705l1.438 1.437.663-.663-1.438-1.437V8.025l1.438-1.437zm-2.375 5.868H6.992V8.3h4.156v4.156z"/></g></svg>