<svg width="14" height="16" xmlns="http://www.w3.org/2000/svg"><path d="M12.16 10.898a2.332 2.332 0 00-.359-.124 9.81 9.81 0 00.133-.74 3.936 3.936 0 00-.049-1.377l-.83-3.904a2.278 2.278 0 00-.829-1.218c.237-.302.333-.713.21-1.117l-.25-1.499-.032-.122A1.217 1.217 0 009.014 0H4.29a1.22 1.22 0 00-1.14.795l-.43 1.612c-.159.423-.034.884.261 1.2a2.19 2.19 0 00-.721 1.104l-.842 3.946a3.937 3.937 0 00-.05 1.377 9.8 9.8 0 00.134.74c-.117.03-.236.071-.356.124C.442 11.208 0 11.85 0 12.783c.021.453.159 1.034.519 1.623.606.991 1.647 1.592 3.132 1.594h6c1.487-.002 2.529-.602 3.135-1.594.36-.589.497-1.17.518-1.59 0-.966-.442-1.608-1.145-1.918zM4.38 1.333h4.526l.222 1.334h-2.11a8.252 8.252 0 00-.222 0H4.024l.357-1.334zM2.718 8.935l.832-3.903c.105-.37.574-.682 1.35-.867a6.312 6.312 0 011.034-.149c.154-.01.297-.015.424-.016h.121c.033 0 .065 0 .096.002l.043.001.11-.001L6.823 4h.121c.127.001.27.006.424.016.36.024.712.072 1.035.15.775.184 1.244.496 1.36.908l.821 3.861c.065.303.076.612.033.91-.167 1.17-.537 1.989-1.004 2.132l-.014.004-.004.001a.57.57 0 01-.037.007 8.529 8.529 0 00-.766-.228 8.784 8.784 0 00-2.14-.28c-.728 0-1.451.106-2.142.28a8.75 8.75 0 00-.757.225l-.009.003a.533.533 0 01-.035-.006l-.005-.002c-.005 0-.01-.003-.015-.004-.467-.144-.837-.963-1.004-2.132a2.603 2.603 0 01.033-.91zM1.653 13.71a2.343 2.343 0 01-.323-.96c0-.357.12-.53.352-.632a.985.985 0 01.175-.057c.118.187.25.354.396.5.207.263.452.466.74.598v1.448c-.636-.125-1.06-.44-1.34-.897zm2.671.957V13.2h.002l.11-.035.01-.004.117-.034.008-.003a6.24 6.24 0 01.264-.07 7.485 7.485 0 011.816-.24c.607 0 1.225.09 1.816.24.14.035.272.072.394.109h.002l.117.038v1.465H4.324zm7.604-1.64a2.344 2.344 0 01-.277.683c-.28.457-.703.772-1.34.897v-1.449c.282-.129.522-.326.725-.581a2.83 2.83 0 00.412-.516.986.986 0 01.175.057c.232.103.351.275.351.665 0 .009-.014.108-.046.245z" fill="#3380C4"/></svg>