<svg width="15" height="18" xmlns="http://www.w3.org/2000/svg"><g fill="#3380C4" stroke="#3380C4" stroke-width=".3"><path d="M12.8 3.782C11.577 2.014 9.64 1 7.482 1a6.383 6.383 0 00-5.319 2.782C.946 5.54.665 7.768 1.41 9.735c.2.537.516 1.06.94 1.548l4.705 5.52a.56.56 0 00.853 0l4.705-5.518a5.092 5.092 0 00.94-1.547 6.454 6.454 0 00-.753-5.956zm-.297 5.565a3.99 3.99 0 01-.741 1.211l-4.28 5.02L3.2 10.555a3.992 3.992 0 01-.74-1.212 5.338 5.338 0 01.625-4.925 5.276 5.276 0 014.397-2.3c1.783 0 3.386.839 4.397 2.3a5.339 5.339 0 01.624 4.929z"/><path d="M7.51 4.328a3.128 3.128 0 00-3.123 3.125 3.128 3.128 0 003.124 3.124 3.128 3.128 0 003.124-3.124 3.128 3.128 0 00-3.124-3.125zm0 5.133a2.01 2.01 0 01-2.007-2.008A2.01 2.01 0 017.51 5.444a2.01 2.01 0 012.008 2.009A2.01 2.01 0 017.511 9.46z"/></g></svg>