<svg width="17" height="16" xmlns="http://www.w3.org/2000/svg"><g fill="none"><path d="M16.273 5.78l-5.398-.504L8.731.263a.431.431 0 00-.795 0L5.792 5.276.393 5.78a.436.436 0 00-.245.76l4.073 3.603-1.192 5.325a.433.433 0 00.643.47l4.661-2.787 4.662 2.787a.433.433 0 00.643-.47l-1.192-5.325 4.073-3.602a.436.436 0 00-.246-.76z" fill="#FFDC64"/><path d="M8.917.263a.444.444 0 00-.812 0l-2.19 5.013-5.513.504a.434.434 0 00-.251.76l4.16 3.603-1.218 5.325c-.085.372.324.665.657.47l1.063-.622C4.96 9.348 7.773 5.146 10 2.742L8.917.263z" fill="#FFC850"/></g></svg>