<svg width="12" height="11" xmlns="http://www.w3.org/2000/svg"><path d="M5 6a1.001 1.001 0 012 0 1.001 1.001 0 01-2 0zM4 6c0 1.103.897 2 2 2s2-.897 2-2-.897-2-2-2-2 .897-2 2zm7 2.983c0 .56-.415 1.017-.926 1.017H1.926C1.416 10 1 9.544 1 8.983V4.018c0-.56.415-1.017.926-1.017h1.343a.46.46 0 00.414-.281l.526-1.158c.158-.346.475-.562.828-.562h1.926c.353 0 .67.216.828.562l.526 1.158a.46.46 0 00.414.28h1.343c.51 0 .926.457.926 1.018v4.965zM9.055 1.995l-.403-.874C8.332.43 7.689 0 6.975 0h-1.95c-.714 0-1.357.43-1.677 1.121l-.403.874h-1.07C.841 1.995 0 2.905 0 4.023v4.949C0 10.09.841 11 1.875 11h8.25C11.159 11 12 10.09 12 8.972V4.023c0-1.118-.841-2.028-1.875-2.028h-1.07z" fill="#FFF" fill-rule="evenodd"/></svg>