<svg width="40" height="40" xmlns="http://www.w3.org/2000/svg"><defs><linearGradient x1="33.202%" y1="14.06%" x2="58.495%" y2="68.175%" id="a"><stop stop-color="#00C3FF" offset="0%"/><stop stop-color="#00B0ED" offset="100%"/></linearGradient><linearGradient x1="73.834%" y1="62.785%" x2="-89.895%" y2="-25.045%" id="b"><stop stop-color="#00B0ED" stop-opacity="0" offset="0%"/><stop stop-color="#00A2CE" offset="100%"/></linearGradient><linearGradient x1="50%" y1="26.986%" x2="50%" y2="92.634%" id="c"><stop stop-color="#00B0ED" stop-opacity="0" offset="0%"/><stop stop-color="#00A2CE" offset="100%"/></linearGradient><linearGradient x1="94.556%" y1="86.513%" x2="34.237%" y2="30.388%" id="d"><stop stop-color="#00B0ED" stop-opacity="0" offset="0%"/><stop stop-color="#00A2CE" offset="100%"/></linearGradient></defs><g fill="none"><path d="M32.845 39.315a120.82 120.82 0 01-25.69 0 7.283 7.283 0 01-6.47-6.47 120.814 120.814 0 010-25.69 7.283 7.283 0 016.47-6.47 120.814 120.814 0 0125.69 0 7.283 7.283 0 016.47 6.47 120.82 120.82 0 010 25.69 7.283 7.283 0 01-6.47 6.47z" fill="url(#a)"/><path d="M37.108 8.623a6.45 6.45 0 00-5.73-5.731 107.05 107.05 0 00-22.755 0 6.452 6.452 0 00-5.731 5.73 107.047 107.047 0 000 22.755 6.451 6.451 0 005.73 5.73c7.578.81 15.178.81 22.755 0a6.45 6.45 0 005.73-5.73c.81-7.577.81-15.177 0-22.754z" fill="url(#b)"/><path d="M.571 32c.028.277.056.554.086.831a7.296 7.296 0 006.48 6.483c8.567.915 17.16.915 25.727 0a7.296 7.296 0 006.479-6.483c.03-.277.058-.554.086-.831H.57z" fill="url(#c)"/><path d="M39.992 18.464l-8.348-8.354a9.958 9.958 0 01-2.38.997c-.35.094-.635.145-.84.173a5.166 5.166 0 00-3.71-1.566 5.186 5.186 0 00-5.08 6.226c-1.196-.018-5.08-.338-8.785-3.515L9.1 10.674s-2.05 3.58.964 6.297c.132.147.278.293.437.437l.038.042c-.395-.027-1.585-.145-2.273-.632 0 0-.139 2.188 1.683 3.799l1.471 1.484c-.448.037-.944.028-1.288-.123 0 0 .305 1.296 1.484 2.333l2.06 2.073c-1.236.72-3.4 1.623-6.248 1.392L19.929 40c4.295-.001 8.59-.23 12.878-.689a7.325 7.325 0 006.505-6.51c.51-4.774.735-9.556.68-14.337z" fill="url(#d)"/><path d="M32.571 12.086c-.877.459-2.198.67-2.636.731a8.28 8.28 0 00-.01-.061c1.488-.92 1.944-2.652 1.944-2.652a9.825 9.825 0 01-2.347.98 6.779 6.779 0 01-.827.17 5.095 5.095 0 00-3.657-1.54 5.107 5.107 0 00-5.008 6.125c-1.366-.02-6.296-.439-10.38-5.179 0 0-2.276 3.965 1.549 6.673 0 0-1.55-.048-2.372-.628 0 0-.242 3.82 4.163 5.028 0 0-1.55.388-2.324.049 0 0 .774 3.288 4.647 3.53 0 0-2.777 2.54-7.313 2.175a14.379 14.379 0 007.711 2.227c7.973 0 14.437-6.456 14.437-14.42 0-.1-.001-.199-.003-.298l.003-.177-.002-.125c1.474-.98 2.425-2.608 2.425-2.608z" fill="#FFF"/></g></svg>