<svg width="40" height="40" xmlns="http://www.w3.org/2000/svg"><defs><linearGradient x1="22.749%" y1="-2.501%" x2="94.804%" y2="136.316%" id="a"><stop stop-color="#FFFCF8" offset="0%"/><stop stop-color="#FAF8F6" offset="18.75%"/><stop stop-color="#ECEEF2" offset="40.41%"/><stop stop-color="#D5DCEA" offset="63.53%"/><stop stop-color="#B5C4DF" offset="87.5%"/><stop stop-color="#A1B5D8" offset="100%"/></linearGradient><linearGradient x1="36.876%" y1="42.618%" x2="-154.04%" y2="-64.772%" id="b"><stop stop-color="#A1B5D8" stop-opacity="0" offset="0%"/><stop stop-color="#90A2BD" stop-opacity=".31" offset="30.94%"/><stop stop-color="#7C8B9C" stop-opacity=".757" offset="75.54%"/><stop stop-color="#748290" offset="100%"/></linearGradient><linearGradient x1="50%" y1="41.256%" x2="50%" y2="119.349%" id="c"><stop stop-color="#A1B5D8" stop-opacity="0" offset="0%"/><stop stop-color="#90A2BD" stop-opacity=".31" offset="30.94%"/><stop stop-color="#7C8B9C" stop-opacity=".757" offset="75.54%"/><stop stop-color="#748290" offset="100%"/></linearGradient><linearGradient x1="78.53%" y1="69.685%" x2="-6.822%" y2="-5.4%" id="d"><stop stop-color="#A1B5D8" stop-opacity="0" offset="0%"/><stop stop-color="#90A2BD" stop-opacity=".31" offset="30.94%"/><stop stop-color="#7C8B9C" stop-opacity=".757" offset="75.54%"/><stop stop-color="#748290" offset="100%"/></linearGradient><linearGradient x1="43.899%" y1="37.722%" x2="58.714%" y2="67.681%" id="e"><stop stop-color="#E52D27" offset="0%"/><stop stop-color="#B31217" offset="100%"/></linearGradient></defs><g fill="none"><path d="M32.845 39.315a120.82 120.82 0 01-25.69 0 7.283 7.283 0 01-6.47-6.47 120.814 120.814 0 010-25.69 7.283 7.283 0 016.47-6.47 120.814 120.814 0 0125.69 0 7.283 7.283 0 016.47 6.47 120.82 120.82 0 010 25.69 7.283 7.283 0 01-6.47 6.47z" fill="url(#a)"/><path d="M37.14 8.601a6.463 6.463 0 00-5.741-5.74 107.25 107.25 0 00-22.798 0 6.464 6.464 0 00-5.74 5.74c-.81 7.592-.81 15.206 0 22.797A6.463 6.463 0 008.6 37.14c7.592.81 15.206.81 22.797 0a6.463 6.463 0 005.742-5.742c.81-7.59.81-15.205 0-22.797z" fill="url(#b)"/><path d="M.6 32.016c.027.276.055.553.085.83a7.283 7.283 0 006.47 6.47c8.555.912 17.135.912 25.69 0a7.283 7.283 0 006.47-6.47c.03-.277.058-.554.086-.83H.599z" fill="url(#c)"/><path d="M32.845 39.315a7.283 7.283 0 006.47-6.47c.4-3.74.624-7.486.674-11.233L31.3 12.923c-.446-.553-.85-.604-1.685-.767a13.566 13.566 0 00-2.06-.25c-2.205-.087-4.41-.17-6.616-.19-3.24-.032-6.479-.021-9.705.354-1.39.161-2.86 1.252-3.019 2.74-.08.763-.22 1.523-.265 2.29-.16 2.789-.192 5.577.198 8.356.13.93.274 1.356.901 1.875l12.657 12.657a121.22 121.22 0 0011.14-.673z" fill="url(#d)"/><path d="M20.685 28.61c-3.228-.109-5.727-.17-8.223-.29-.762-.036-1.546-.14-2.268-.374-1.327-.43-2.085-1.402-2.282-2.804-.39-2.779-.356-5.567-.197-8.356.044-.766.184-1.526.265-2.29.158-1.488 1.628-2.579 3.02-2.74 3.225-.375 6.465-.385 9.704-.355 2.206.021 4.411.104 6.615.191.69.027 1.383.118 2.06.25 1.493.291 2.357 1.225 2.62 2.725.356 2.03.449 4.079.374 6.128-.056 1.552-.216 3.101-.377 4.646-.178 1.706-1.655 2.716-2.984 2.804-3.015.199-6.032.34-8.327.465z" fill="url(#e)"/><path d="M17.64 23.773l6.213-3.814-6.212-3.818v7.632z" fill="#FFF"/></g></svg>